<svg width="375" height="140" viewBox="0 0 375 140" fill="none" xmlns="http://www.w3.org/2000/svg">
<path d="M311.146 15.2475C311.148 15.7798 310.95 16.3005 310.578 16.7438C310.206 17.187 309.676 17.5329 309.055 17.7375C308.435 17.9422 307.751 17.9964 307.092 17.8934C306.432 17.7904 305.826 17.5348 305.35 17.1589C304.874 16.783 304.55 16.3037 304.418 15.7817C304.286 15.2597 304.353 14.7185 304.61 14.2266C304.867 13.7347 305.302 13.3141 305.861 13.0183C306.42 12.7224 307.077 12.5645 307.749 12.5645C308.649 12.5645 309.511 12.8469 310.148 13.3499C310.785 13.8528 311.144 14.5352 311.146 15.2475Z" fill="#60D290"/>
<path d="M228.395 19.0368C228.394 19.5672 228.193 20.0852 227.82 20.5255C227.447 20.9659 226.917 21.3087 226.298 21.5107C225.678 21.7127 224.997 21.7648 224.341 21.6605C223.684 21.5562 223.081 21.3001 222.608 20.9246C222.135 20.5491 221.813 20.0711 221.683 19.5508C221.553 19.0306 221.621 18.4914 221.877 18.0016C222.134 17.5117 222.568 17.0931 223.125 16.7986C223.682 16.5041 224.337 16.3469 225.007 16.3469C225.453 16.3469 225.894 16.4166 226.306 16.5518C226.717 16.6871 227.091 16.8853 227.406 17.1352C227.721 17.3851 227.97 17.6817 228.14 18.008C228.31 18.3343 228.396 18.6839 228.395 19.0368Z" fill="#60D290"/>
<path d="M185.107 53.6254C185.109 54.1577 184.911 54.6785 184.539 55.1217C184.167 55.565 183.637 55.9109 183.016 56.1155C182.396 56.3202 181.712 56.3744 181.053 56.2714C180.393 56.1684 179.787 55.9128 179.311 55.5368C178.835 55.1609 178.511 54.6816 178.379 54.1597C178.247 53.6377 178.314 53.0965 178.571 52.6046C178.828 52.1126 179.263 51.6921 179.822 51.3962C180.381 51.1004 181.038 50.9424 181.71 50.9424C182.156 50.9415 182.597 51.0102 183.01 51.1447C183.422 51.2791 183.796 51.4766 184.112 51.7258C184.427 51.975 184.678 52.2711 184.849 52.5971C185.019 52.9231 185.107 53.2725 185.107 53.6254Z" fill="#60D290"/>
<path d="M14.8981 137.317C14.8981 137.848 14.6994 138.366 14.3271 138.808C13.9548 139.249 13.4256 139.593 12.8065 139.796C12.1873 139.999 11.5061 140.052 10.8488 139.948C10.1915 139.845 9.58779 139.589 9.11393 139.214C8.64007 138.839 8.31737 138.361 8.18663 137.84C8.05589 137.32 8.12299 136.781 8.37944 136.29C8.63589 135.8 9.07018 135.381 9.62738 135.086C10.1846 134.791 10.8397 134.634 11.5098 134.634C12.4077 134.636 13.2682 134.919 13.9032 135.422C14.5381 135.925 14.8958 136.606 14.8981 137.317Z" fill="#60D290"/>
<path d="M74.7258 2.683C74.7258 3.21365 74.5271 3.73238 74.1548 4.17359C73.7825 4.61481 73.2533 4.9587 72.6342 5.16177C72.015 5.36484 71.3337 5.41797 70.6765 5.31445C70.0192 5.21092 69.4155 4.95539 68.9416 4.58016C68.4678 4.20494 68.1451 3.72688 68.0143 3.20643C67.8836 2.68598 67.9507 2.14651 68.2071 1.65626C68.4636 1.16601 68.8979 0.74698 69.4551 0.452168C70.0123 0.157357 70.6674 0 71.3375 0C72.2354 0.00182546 73.0959 0.285085 73.7308 0.78785C74.3658 1.29061 74.7235 1.97199 74.7258 2.683Z" fill="#60D290"/>
<path d="M375 136.619C375.002 137.151 374.804 137.672 374.431 138.116C374.058 138.559 373.528 138.905 372.907 139.109C372.286 139.314 371.602 139.368 370.942 139.264C370.282 139.16 369.676 138.904 369.201 138.528C368.725 138.151 368.401 137.671 368.271 137.149C368.14 136.626 368.208 136.085 368.466 135.593C368.724 135.101 369.161 134.681 369.721 134.386C370.281 134.091 370.939 133.934 371.612 133.936C372.509 133.937 373.37 134.221 374.005 134.723C374.64 135.226 374.998 135.908 375 136.619Z" fill="#60D290"/>
<path d="M272.749 72.026C270.987 72.0274 269.264 71.6149 267.798 70.8407C266.332 70.0665 265.189 68.9654 264.513 67.6768C263.838 66.3881 263.66 64.9697 264.003 63.601C264.345 62.2324 265.193 60.975 266.438 59.9879C267.684 59.0007 269.271 58.3283 270.999 58.0556C272.727 57.7829 274.518 57.9222 276.147 58.4558C277.775 58.9894 279.166 59.8935 280.145 61.0535C281.125 62.2136 281.647 63.5775 281.647 64.9728C281.643 66.8411 280.704 68.632 279.036 69.9537C277.369 71.2755 275.108 72.0206 272.749 72.026ZM272.749 59.0398C271.267 59.0398 269.818 59.3877 268.586 60.0397C267.354 60.6916 266.393 61.6182 265.826 62.7023C265.259 63.7864 265.111 64.9794 265.4 66.1303C265.689 67.2812 266.403 68.3383 267.451 69.1681C268.498 69.9978 269.833 70.5629 271.287 70.7918C272.74 71.0207 274.247 70.9033 275.616 70.4542C276.985 70.0051 278.155 69.2447 278.979 68.269C279.802 67.2933 280.241 66.1462 280.241 64.9728C280.242 64.1928 280.05 63.4202 279.674 62.6992C279.298 61.9781 278.746 61.3228 278.05 60.7706C277.355 60.2184 276.528 59.7801 275.619 59.4807C274.709 59.1814 273.734 59.0269 272.749 59.0259V59.0398Z" fill="#60D290"/>
<path d="M8.90737 35.287C7.14566 35.287 5.42351 34.8733 3.9587 34.0983C2.49389 33.3233 1.35222 32.2217 0.678038 30.9329C0.00386068 29.6441 -0.172537 28.2259 0.171156 26.8577C0.514849 25.4895 1.36319 24.2327 2.60891 23.2463C3.85463 22.2599 5.44177 21.5882 7.16963 21.316C8.89749 21.0439 10.6885 21.1835 12.3161 21.7174C13.9437 22.2512 15.3348 23.1553 16.3136 24.3152C17.2923 25.4751 17.8147 26.8387 17.8147 28.2337C17.8124 30.1038 16.8732 31.8968 15.2033 33.2191C13.5333 34.5414 11.269 35.2851 8.90737 35.287ZM8.90737 22.3007C7.42546 22.3007 5.97683 22.6487 4.74467 23.3006C3.5125 23.9525 2.55215 24.8791 1.98505 25.9633C1.41794 27.0474 1.26956 28.2403 1.55867 29.3912C1.84778 30.5421 2.56139 31.5993 3.60925 32.429C4.65712 33.2588 5.99219 33.8238 7.44562 34.0528C8.89906 34.2817 10.4056 34.1642 11.7747 33.7151C13.1438 33.2661 14.314 32.5056 15.1373 31.5299C15.9606 30.5543 16.4 29.4072 16.4 28.2337C16.3977 26.6608 15.6076 25.1527 14.2029 24.0405C12.7983 22.9282 10.8938 22.3025 8.90737 22.3007Z" fill="#60D290"/>
<path d="M365.333 52.6919C363.571 52.6932 361.848 52.2807 360.382 51.5066C358.916 50.7324 357.773 49.6313 357.097 48.3426C356.422 47.0539 356.244 45.6355 356.587 44.2669C356.93 42.8982 357.777 41.6408 359.023 40.6537C360.268 39.6666 361.855 38.9941 363.583 38.7214C365.311 38.4487 367.103 38.588 368.731 39.1216C370.359 39.6553 371.751 40.5593 372.73 41.7193C373.709 42.8794 374.231 44.2433 374.231 45.6386C374.229 47.5075 373.291 49.2994 371.623 50.6216C369.955 51.9437 367.693 52.6882 365.333 52.6919ZM365.333 39.7056C363.848 39.7042 362.397 40.0516 361.162 40.7038C359.927 41.356 358.964 42.2836 358.395 43.3692C357.827 44.4549 357.677 45.6498 357.966 46.8027C358.256 47.9556 358.97 49.0146 360.02 49.8457C361.069 50.6769 362.407 51.2427 363.863 51.4717C365.319 51.7007 366.828 51.5824 368.199 51.132C369.57 50.6816 370.741 49.9192 371.565 48.9413C372.389 47.9634 372.827 46.814 372.826 45.6386C372.823 44.0657 372.033 42.5576 370.628 41.4454C369.224 40.3331 367.319 39.7074 365.333 39.7056Z" fill="#60D290"/>
<path d="M142.832 29.347C141.07 29.3484 139.346 28.9357 137.88 28.1612C136.414 27.3867 135.271 26.2852 134.596 24.9961C133.921 23.707 133.743 22.2883 134.087 20.9194C134.43 19.5506 135.279 18.2932 136.525 17.3064C137.771 16.3195 139.359 15.6476 141.088 15.3757C142.817 15.1038 144.608 15.244 146.236 15.7787C147.864 16.3134 149.255 17.2185 150.233 18.3795C151.211 19.5405 151.733 20.9051 151.731 22.3007C151.729 24.1689 150.79 25.9601 149.122 27.2812C147.454 28.6022 145.192 29.3452 142.832 29.347ZM142.832 16.3676C141.35 16.3676 139.902 16.7156 138.67 17.3675C137.437 18.0195 136.477 18.9461 135.91 20.0302C135.343 21.1143 135.194 22.3072 135.484 23.4581C135.773 24.609 136.486 25.6662 137.534 26.496C138.582 27.3257 139.917 27.8908 141.37 28.1197C142.824 28.3486 144.33 28.2311 145.7 27.7821C147.069 27.333 148.239 26.5726 149.062 25.5969C149.885 24.6212 150.325 23.4741 150.325 22.3007C150.323 20.7277 149.532 19.2197 148.128 18.1074C146.723 16.9951 144.819 16.3695 142.832 16.3676Z" fill="#60D290"/>
</svg>
