<svg width="20" height="20" viewBox="0 0 20 20" fill="none" xmlns="http://www.w3.org/2000/svg">
<path d="M10.8818 5C10.6174 5.00001 10.3648 5.06155 10.124 5.18262C9.82312 5.35244 9.58292 5.62075 9.4502 5.93652C9.36565 6.15516 9.23242 6.81131 9.23242 6.82324C9.11078 7.48498 9.04041 8.52907 9.03027 9.69922L9.0293 9.99414C9.0293 11.2203 9.10084 12.3385 9.20898 13.0674L9.30371 13.5205C9.35642 13.7605 9.4258 14.0343 9.49805 14.1738C9.76259 14.6842 10.2804 15 10.834 15H10.8818C11.2427 14.9881 12.001 14.6712 12.001 14.6602C13.221 14.1482 15.5751 12.6033 16.6621 11.502L16.9775 11.1719C17.0602 11.0823 17.1532 10.9762 17.2109 10.8936C17.4036 10.6385 17.4999 10.3225 17.5 10.0068C17.5 9.65451 17.3919 9.32656 17.1875 9.05859L16.8623 8.70801L16.79 8.63281C15.8036 7.5634 13.228 5.8154 11.8809 5.28027L11.6777 5.20215C11.433 5.11441 11.0898 5.00964 10.8818 5ZM3.75293 8.73535C3.06124 8.73535 2.5002 9.30162 2.5 10C2.5 10.6985 3.06112 11.2656 3.75293 11.2656L6.83496 10.9922C7.37768 10.9922 7.81836 10.548 7.81836 10C7.81816 9.45124 7.37756 9.00781 6.83496 9.00781L3.75293 8.73535Z" fill="#F1EDF6"/>
</svg>
